<?xml version="1.0" encoding="UTF-8"?><svg id="Layer_2" xmlns="http://www.w3.org/2000/svg" viewBox="0 0 26.65 26.65"><defs><style>.cls-1{fill:#00233a;}</style></defs><g id="Layer_1-2"><g><path class="cls-1" d="M20.38,4.76c-.86,0-1.56,.7-1.56,1.56s.7,1.56,1.56,1.56,1.56-.7,1.56-1.56-.7-1.56-1.56-1.56Z"/><path class="cls-1" d="M13.43,6.76c-3.62,0-6.56,2.94-6.56,6.56s2.94,6.56,6.56,6.56,6.56-2.94,6.56-6.56-2.94-6.56-6.56-6.56Zm0,10.77c-2.32,0-4.2-1.89-4.2-4.2s1.89-4.2,4.2-4.2,4.2,1.89,4.2,4.2-1.89,4.2-4.2,4.2Z"/><path class="cls-1" d="M18.64,26.65H8C3.59,26.65,0,23.06,0,18.64V8C0,3.59,3.59,0,8,0h10.64c4.41,0,8,3.59,8,8v10.64c0,4.41-3.59,8-8,8ZM8,2.51c-3.03,0-5.5,2.47-5.5,5.5v10.64c0,3.03,2.47,5.5,5.5,5.5h10.64c3.03,0,5.5-2.47,5.5-5.5V8c0-3.03-2.47-5.5-5.5-5.5H8Z"/></g></g></svg>