<?xml version="1.0" encoding="utf-8"?>
<!-- Generator: Adobe Illustrator 26.4.1, SVG Export Plug-In . SVG Version: 6.00 Build 0)  -->
<svg version="1.1" id="Layer_2_00000170270936358224971720000016323361947797065140_"
	 xmlns="http://www.w3.org/2000/svg" xmlns:xlink="http://www.w3.org/1999/xlink" x="0px" y="0px" viewBox="0 0 143.2 22.5"
	 style="enable-background:new 0 0 143.2 22.5;" xml:space="preserve">
<style type="text/css">
	.st0{fill:#1F4963;}
</style>
<g id="Layer_1-2">
	<g>
		<path class="st0" d="M23.5,0.3v0.3c-4.4,0-4.3,3-4.3,7.4v14.3h-0.7L5.4,5.2v9.4c0,4.2,0,7.4,4,7.4v0.3H0.6v-0.3
			C5,21.9,5,18.7,5,14.5V4.8L3.7,3C1.7,0.5,0.8,0.7,0,0.6V0.3h4.8l14,18.4V8c0-4.3,0-7.4-4-7.4V0.3H23.5L23.5,0.3z"/>
		<path class="st0" d="M33.3,0.3v0.3c-1.3,0-1.9,0.4-1.9,2.3v16.2c0,2.1,0.6,2.8,1.9,2.8v0.3h-6.4v-0.3c1.3,0,2-0.7,2-2.8V2.9
			c0-1.9-0.6-2.3-2-2.3V0.3H33.3z"/>
		<path class="st0" d="M54.7,15.8l0.3,4.8c-2.3,1.5-3.9,1.9-7.2,1.9c-6.4,0-10.8-4-10.8-11.3S41.4,0,47.8,0C51,0,53,0.3,55,1.9
			l-0.3,4.8h-0.3c-0.4-5.6-4.6-6.3-6.6-6.3c-3.2,0-7.7,1.1-7.7,10.9s4.6,10.9,7.7,10.9c1.9,0,6.4-0.9,6.6-6.4L54.7,15.8L54.7,15.8z"
			/>
		<path class="st0" d="M68.4,22.5c-7,0-10-4.9-10-11.1S61.4,0,68.4,0s10,5.2,10,11.4S75.5,22.5,68.4,22.5z M68.4,0.3
			c-3.8,0-7.3,2.5-7.3,11.1s3.5,10.8,7.3,10.8s7.2-2.2,7.2-10.8S72.2,0.3,68.4,0.3L68.4,0.3z"/>
		<path class="st0" d="M103.7,19v3H81.1v-0.3c1.3,0,1.5-1.1,1.5-3.2V2.9c0-1.9-0.4-2.6-1.7-2.6V0H87v0.3c-1.3,0-2,0.5-2,2.8v18.6
			h9.3c5,0,9.1,0.2,9.1-2.7H103.7L103.7,19z"/>
		<path class="st0" d="M126.7,22.3h-6.2v-0.3c1.3,0,1.7-1,0.5-3.6l-1.1-3h-8.4c-1.3,3.7-2.4,6.7,1.7,6.6v0.3h-6.6v-0.3
			c1.4,0,2.2-0.3,4.7-7.4l5.2-14.2h0.2c1.9,4.6,7.6,19,7.6,19c1,2.5,1.6,2.6,2.5,2.7L126.7,22.3L126.7,22.3z M119.8,15l-4.2-11
			l-4,11H119.8L119.8,15z"/>
		<path class="st0" d="M136.4,22.5c-4.6,0-6.9-1.7-6.9-1.7v-6h0.3c0.2,4.8,1.4,7.3,6.6,7.3s5.9-5.6,2.3-8.1l-5.3-3.5
			c-2.2-1.6-5.7-4.2-3.4-8.1c0,0,1.5-2.4,5.6-2.4s6.7,1.5,6.7,1.5v5.3h-0.4c-0.1-3.8-1-6.4-6.3-6.4c-3.4,0-6.6,4.5-1.6,7.7l5.3,3.5
			c4.2,2.8,4.4,6.3,3.1,8.4C142.5,20,141.2,22.5,136.4,22.5z"/>
	</g>
</g>
</svg>
