<?xml version="1.0" encoding="utf-8"?>
<!-- Generator: Adobe Illustrator 26.4.1, SVG Export Plug-In . SVG Version: 6.00 Build 0)  -->
<svg version="1.1" id="Layer_1" xmlns="http://www.w3.org/2000/svg" xmlns:xlink="http://www.w3.org/1999/xlink" x="0px" y="0px"
	 viewBox="0 0 48 48" style="enable-background:new 0 0 48 48;" xml:space="preserve">
<path d="M6.5,34.1L6.5,34.1C6.5,33.5,7,33,7.6,33h32.8c0.6,0,1.1,0.5,1.1,1.1l0,0c0,0.6-0.5,1.1-1.1,1.1H7.6
	C7,35.2,6.5,34.7,6.5,34.1z M6.5,24L6.5,24c0-0.7,0.5-1.2,1.1-1.2h32.8c0.6,0,1.1,0.5,1.1,1.1V24c0,0.6-0.5,1.1-1.1,1.1H7.6
	C7,25.1,6.5,24.6,6.5,24z M6.5,13.9L6.5,13.9c0-0.6,0.5-1.1,1.1-1.1h32.8c0.6,0,1.1,0.5,1.1,1.1v0c0,0.6-0.5,1.1-1.1,1.1H7.6
	C7,15,6.5,14.5,6.5,13.9z"/>
</svg>
