<?xml version="1.0" encoding="utf-8"?>
<!-- Generator: Adobe Illustrator 26.4.1, SVG Export Plug-In . SVG Version: 6.00 Build 0)  -->
<svg version="1.1" id="Layer_1" xmlns="http://www.w3.org/2000/svg" xmlns:xlink="http://www.w3.org/1999/xlink" x="0px" y="0px"
	 viewBox="0 0 48 48" style="enable-background:new 0 0 48 48;" xml:space="preserve">
<style type="text/css">
	.st0{fill:none;}
</style>
<path d="M38.7,40.3L26.5,28.1c-1,0.9-2.2,1.5-3.5,2c-1.3,0.5-2.7,0.7-4.1,0.7c-3.4,0-6.3-1.2-8.6-3.5c-2.3-2.3-3.5-5.1-3.5-8.4
	c0-3.2,1.2-6.4,3.5-8.7c2.3-2.3,5.2-3.5,8.6-3.5c3.3,0,6.1,1.1,8.4,3.4c2,1.9,3.2,4.4,3.6,7.1c0.2,1.9,0,3.8-0.6,5.7
	c-0.5,1.3-1.2,2.5-2.1,3.6l12.2,12.1c0.5,0.5,0.5,1.2,0,1.7l0,0C39.9,40.7,39.2,40.7,38.7,40.3z M20.2,28.6c1.7-0.2,3.3-0.8,4.6-1.9
	c2.6-2.1,3.9-4.7,3.9-7.9c0-2.7-1-5.1-2.9-6.9C23.9,9.9,21.6,9,19,9c-2.8,0-5.1,0.9-7,2.9s-2.9,4.2-2.9,6.9s0.9,5.1,2.9,7
	C14.1,28,16.9,28.9,20.2,28.6z"/>
<path class="st0" d="M56.6,8.6"/>
<path class="st0" d="M8.6,56.9"/>
</svg>
