<?xml version="1.0" encoding="utf-8"?>
<!-- Generator: Adobe Illustrator 26.4.1, SVG Export Plug-In . SVG Version: 6.00 Build 0)  -->
<svg version="1.1" id="Layer_1" xmlns="http://www.w3.org/2000/svg" xmlns:xlink="http://www.w3.org/1999/xlink" x="0px" y="0px"
	 viewBox="0 0 48 48" style="enable-background:new 0 0 48 48;" xml:space="preserve">
<style type="text/css">
	.st0{fill:#231F20;}
</style>
<g>
	<path class="st0" d="M20.7,42.8c-1.1,0-1.9-0.4-2.7-1.1c-0.7-0.7-1.1-1.6-1.1-2.7s0.4-1.9,1.1-2.7c0.7-0.7,1.6-1.1,2.6-1.1
		c1.1,0,2,0.4,2.7,1.1s1.1,1.6,1.1,2.7c0,1-0.4,1.9-1.1,2.6C22.6,42.5,21.7,42.8,20.7,42.8z M37.8,42.8c-1.1,0-1.9-0.4-2.7-1.1
		C34.4,41,34,40.1,34,39s0.4-1.9,1.1-2.7s1.6-1.1,2.7-1.1c1.1,0,1.9,0.4,2.7,1.1c0.7,0.7,1.1,1.6,1.1,2.7c0,1-0.4,1.9-1.1,2.6
		C39.7,42.5,38.8,42.8,37.8,42.8z M12,14.9l6.5,13.6h16.4c0.1,0,0.2,0,0.4-0.1c0.1-0.1,0.2-0.1,0.2-0.3l7-12.6
		c0.1-0.2,0.1-0.4,0-0.5c-0.1-0.1-0.2-0.2-0.4-0.2L12,14.9z M10.6,12.2l32.6,0c0.8,0,1.7,0.4,2.1,1.1c0.6,0.9,0.6,1.8,0.1,2.7
		l-7.2,13.1c-0.4,0.7-0.9,1.2-1.5,1.6c-0.6,0.4-1.3,0.6-2,0.6H17.3l-1.3,2c-0.1,0.2-0.1,0.3,0,0.6c0.1,0.2,0.3,0.3,0.5,0.3h26.1
		c0.7,0,1.3,0.6,1.3,1.3v0.1c0,0.7-0.6,1.3-1.3,1.3H16.9c-1.5,0-2.6-0.5-3.2-1.6s-0.6-2.2,0-3.4l1.8-2.9L6.7,10.2H3.6
		c-0.7,0-1.3-0.6-1.3-1.3v0c0-0.7,0.6-1.3,1.3-1.3h4.8L10.6,12.2z M18.5,28.6h16.8H18.5z"/>
</g>
</svg>
