<?xml version="1.0" encoding="UTF-8"?><svg id="Layer_2" xmlns="http://www.w3.org/2000/svg" viewBox="0 0 32.37 26.65"><defs><style>.cls-1{fill:#00233a;}</style></defs><g id="Layer_1-2"><path class="cls-1" d="M32.24,3.19c-1.03,.46-2.17,.75-3.27,.93,.53-.09,1.3-1.04,1.61-1.43,.47-.59,.87-1.26,1.09-1.98,.03-.06,.05-.13,0-.17-.07-.03-.12-.01-.17,.01-1.24,.66-2.52,1.14-3.88,1.49-.11,.03-.2,0-.27-.07-.11-.13-.22-.25-.34-.35-.57-.49-1.19-.87-1.88-1.15-.91-.37-1.9-.53-2.88-.46-.95,.06-1.89,.33-2.74,.77-.85,.44-1.6,1.06-2.21,1.8-.62,.77-1.08,1.68-1.32,2.64-.23,.93-.21,1.85-.07,2.79,.02,.16,0,.18-.13,.16C10.43,7.38,6.01,5.47,2.43,1.38c-.16-.18-.24-.18-.37,.01-1.57,2.35-.81,6.13,1.15,7.99,.26,.25,.53,.5,.82,.72-.11,.02-1.41-.12-2.57-.72-.16-.1-.23-.04-.25,.13-.01,.25,0,.49,.04,.76,.3,2.39,1.95,4.59,4.22,5.45,.27,.11,.57,.21,.85,.26-.52,.11-1.05,.19-2.52,.08-.18-.04-.25,.06-.18,.23,1.11,3.03,3.51,3.93,5.3,4.44,.24,.04,.48,.04,.72,.1-.01,.02-.03,.02-.04,.04-.6,.91-2.66,1.58-3.62,1.92-1.75,.61-3.65,.89-5.5,.7-.3-.04-.36-.04-.44,0-.08,.05-.01,.12,.08,.2,.38,.25,.76,.47,1.15,.68,1.17,.62,2.4,1.12,3.68,1.47,6.61,1.82,14.05,.48,19.01-4.45,3.9-3.87,5.26-9.21,5.26-14.56,0-.21,.25-.32,.39-.44,1.01-.76,1.83-1.67,2.59-2.69,.17-.23,.17-.43,.17-.52v-.03c0-.09,0-.06-.13,0Z"/></g></svg>